<svg width="846" height="281" viewBox="0 0 846 281" fill="none" xmlns="http://www.w3.org/2000/svg">
<path d="M97.356 202.436L85.956 203.804L48.792 156.38V251H19.38V95.96H37.848L90.516 167.552L138.168 95.96H156.18V251H126.54V161.624L97.356 202.436ZM240.205 253.736C228.197 253.736 217.785 251.38 208.969 246.668C200.153 241.956 193.313 235.268 188.449 226.604C183.585 217.788 181.153 207.528 181.153 195.824C181.305 183.968 183.737 173.708 188.449 165.044C193.313 156.228 200.153 149.464 208.969 144.752C217.937 139.888 228.349 137.456 240.205 137.456C252.365 137.456 262.777 139.812 271.441 144.524C280.257 149.236 287.097 155.924 291.961 164.588C296.825 173.252 299.257 183.512 299.257 195.368C299.257 207.072 296.825 217.332 291.961 226.148C287.097 234.964 280.257 241.804 271.441 246.668C262.625 251.38 252.213 253.736 240.205 253.736ZM240.433 228.428C246.057 228.428 250.921 226.984 255.025 224.096C259.281 221.208 262.625 217.256 265.057 212.24C267.489 207.224 268.705 201.6 268.705 195.368C268.705 188.984 267.489 183.36 265.057 178.496C262.625 173.632 259.281 169.832 255.025 167.096C250.769 164.208 245.829 162.764 240.205 162.764C234.733 162.764 229.793 164.208 225.385 167.096C221.129 169.984 217.785 173.936 215.353 178.952C212.921 183.816 211.705 189.44 211.705 195.824C211.705 202.208 212.921 207.832 215.353 212.696C217.785 217.56 221.205 221.436 225.613 224.324C230.021 227.06 234.961 228.428 240.433 228.428ZM310.972 242.336L319.864 222.5C323.512 223.868 327.008 225.16 330.352 226.376C333.696 227.44 336.888 228.276 339.928 228.884C343.12 229.492 346.084 229.796 348.82 229.796C351.404 229.796 354.064 229.492 356.8 228.884C359.536 228.124 361.892 227.06 363.868 225.692C365.996 224.172 367.06 222.348 367.06 220.22C367.06 218.092 366.3 216.192 364.78 214.52C363.26 212.696 361.056 211.024 358.168 209.504C355.432 207.984 351.936 206.616 347.68 205.4C342.056 203.424 336.356 200.992 330.58 198.104C324.956 195.064 320.244 191.34 316.444 186.932C312.796 182.524 310.972 177.28 310.972 171.2C310.972 160.712 314.772 152.504 322.372 146.576C330.124 140.496 340.688 137.456 354.064 137.456C357.256 137.456 361.056 137.912 365.464 138.824C370.024 139.736 374.66 141.028 379.372 142.7C384.084 144.372 388.264 146.5 391.912 149.084L383.02 168.92C377.7 166.64 372.76 164.816 368.2 163.448C363.64 162.08 358.852 161.396 353.836 161.396C350.036 161.396 346.844 162.384 344.26 164.36C341.828 166.184 340.612 168.388 340.612 170.972C340.46 173.252 342.284 175.304 346.084 177.128C350.036 178.8 353.912 180.32 357.712 181.688C363.944 183.664 369.872 186.4 375.496 189.896C381.272 193.392 385.984 197.572 389.632 202.436C393.432 207.148 395.332 212.772 395.332 219.308C395.332 230.1 391.38 238.536 383.476 244.616C375.724 250.696 364.324 253.736 349.276 253.736C346.236 253.736 342.36 253.356 337.648 252.596C332.936 251.836 328.148 250.62 323.284 248.948C318.572 247.124 314.468 244.92 310.972 242.336ZM445.236 174.62L439.992 152.048C444.704 148.856 449.568 146.12 454.584 143.84C459.752 141.408 464.692 139.66 469.404 138.596C474.268 137.38 478.676 136.772 482.628 136.772C492.66 136.772 500.336 138.748 505.656 142.7C511.128 146.652 514.928 152.048 517.056 158.888C519.336 165.576 520.476 173.176 520.476 181.688V251H490.836V183.056C490.836 175.912 489.392 170.516 486.504 166.868C483.616 163.22 479.74 161.396 474.876 161.396C471.228 161.396 467.504 162.08 463.704 163.448C460.056 164.816 456.712 166.564 453.672 168.692C450.632 170.82 447.82 172.796 445.236 174.62ZM445.236 251H415.824V92.54L445.236 90.032V251ZM574.779 251H544.911V140.42H574.779V251ZM559.731 124.916C555.019 124.916 551.067 123.32 547.875 120.128C544.683 116.784 543.087 112.756 543.087 108.044C543.087 103.332 544.683 99.38 547.875 96.188C551.067 92.996 554.943 91.4 559.503 91.4C564.063 91.4 567.939 92.996 571.131 96.188C574.475 99.38 576.147 103.332 576.147 108.044C576.147 112.756 574.551 116.784 571.359 120.128C568.167 123.32 564.291 124.916 559.731 124.916ZM653.721 140.876L662.841 163.22H633.657V210.416C633.657 216.192 635.025 220.904 637.761 224.552C640.497 228.2 644.525 230.024 649.845 230.024C651.821 230.024 653.797 229.796 655.773 229.34C657.749 228.884 659.801 228.2 661.929 227.288L670.593 248.72C669.073 249.936 667.021 251 664.437 251.912C661.853 252.976 659.117 253.812 656.229 254.42C653.341 255.18 650.681 255.56 648.249 255.56C639.129 255.56 631.301 254.04 624.765 251C618.381 247.808 613.365 243.248 609.717 237.32C606.069 231.392 604.245 224.172 604.245 215.66V163.22H589.197L589.425 140.876H604.245V114.428L633.657 109.184V140.876H653.721ZM760.848 140.42H790.488V251H770.88L766.092 239.144C761.38 242.488 756.44 245.3 751.272 247.58C746.256 249.708 741.316 251.38 736.452 252.596C731.74 253.964 727.408 254.648 723.456 254.648C713.424 254.648 705.672 252.672 700.2 248.72C694.728 244.768 690.928 239.448 688.8 232.76C686.672 225.92 685.608 218.244 685.608 209.732V140.42H715.248V208.364C715.248 215.356 716.692 220.676 719.58 224.324C722.468 227.972 726.344 229.796 731.208 229.796C735.16 229.796 738.884 229.112 742.38 227.744C746.028 226.376 749.372 224.704 752.412 222.728C755.604 220.752 758.416 218.852 760.848 217.028V140.42Z" fill="url(#paint0_linear_538_1756)"/>
<defs>
<linearGradient id="paint0_linear_538_1756" x1="0" y1="140.5" x2="846" y2="140.5" gradientUnits="userSpaceOnUse">
<stop stop-color="#04DA8D"/>
<stop offset="0.24" stop-color="#FDCF6F"/>
<stop offset="0.485" stop-color="#BFD277"/>
<stop offset="0.675" stop-color="#A0D37A"/>
<stop offset="0.87" stop-color="#FDCF6F"/>
</linearGradient>
</defs>
</svg>
